<svg xmlns="http://www.w3.org/2000/svg" width="100%" viewBox="0 0 200 63" fill="none" class="logo_svg"><path d="M0.400009 53.678C0.179095 53.678 8.9391e-06 53.8571 8.66047e-06 54.078L0 60.9446C0 61.5337 0.477567 62.0113 1.06667 62.0113H199.6C199.821 62.0113 200 61.8322 200 61.6113V54.7446C200 54.1555 199.522 53.678 198.933 53.678H0.400009Z" fill="white" class="logo_bar"></path><path d="M0.333334 0.013916C0.149239 0.013916 0 0.163148 0 0.347236V41.3456C0 41.5297 0.149238 41.6789 0.333333 41.6789H8.04833C8.23243 41.6789 8.38167 41.5297 8.38167 41.3456V12.7517H9.74L21.9919 41.4764C22.0443 41.5992 22.165 41.6789 22.2985 41.6789H29.4731C29.6067 41.6789 29.7273 41.5992 29.7797 41.4764L42.0317 12.7517H43.39V41.3456C43.39 41.5297 43.5392 41.6789 43.7233 41.6789H51.4383C51.6224 41.6789 51.7717 41.5297 51.7717 41.3456V0.347237C51.7717 0.163149 51.6224 0.013916 51.4383 0.013916H39.3002C39.1667 0.013916 39.046 0.0936309 38.9936 0.216477L26.565 29.3577H25.2067L12.7781 0.216478C12.7257 0.0936317 12.605 0.013916 12.4714 0.013916H0.333334ZM87.8801 0.220202C87.8286 0.0953729 87.7069 0.013916 87.5719 0.013916H76.6245C76.4896 0.013916 76.368 0.0951926 76.3165 0.21982L59.2603 41.4485C59.2149 41.5583 59.2956 41.6789 59.4143 41.6789H67.9131C68.0492 41.6789 68.1716 41.5962 68.2224 41.4699L71.6317 32.9893H92.565L95.9743 41.4699C96.0251 41.5962 96.1475 41.6789 96.2836 41.6789H104.723C104.841 41.6789 104.922 41.5584 104.877 41.4487L87.8801 0.220202ZM74.6467 25.4896L81.42 8.64524H82.7783L89.5517 25.4896H74.6467ZM112.713 0.013916C112.529 0.013916 112.38 0.163148 112.38 0.347236V41.3456C112.38 41.5297 112.529 41.6789 112.713 41.6789H120.425C120.611 41.6789 120.76 41.5279 120.759 41.3427L120.573 19.7748V7.94193C120.573 7.80387 120.685 7.69194 120.823 7.69194H133.985C135.245 7.69194 136.347 7.93027 137.29 8.40691C138.235 8.88356 138.963 9.59687 139.475 10.5502C140.025 11.4635 140.302 12.5151 140.302 13.705C140.302 14.895 140.027 16.0066 139.475 16.9199C138.963 17.8332 138.235 18.5465 137.29 19.0632C136.345 19.5398 135.243 19.7765 133.985 19.7765H122.586C122.448 19.7765 122.37 19.9355 122.454 20.0451L139.088 41.5512C139.151 41.6328 139.249 41.6806 139.352 41.6806H148.33C148.471 41.6806 148.548 41.5165 148.458 41.4078L136.695 27.1645C138.588 27.0028 140.36 26.4645 142.013 25.5496C144.06 24.3996 145.673 22.8313 146.853 20.8481C148.073 18.8248 148.683 16.5033 148.683 13.8834C148.683 11.2635 148.073 8.72523 146.853 6.62199C145.633 4.51874 143.922 2.89213 141.718 1.74051C139.553 0.588893 137.093 0.013916 134.338 0.013916H112.713ZM182.907 0.220189C182.855 0.095366 182.734 0.013916 182.599 0.013916H171.651C171.516 0.013916 171.395 0.0951926 171.343 0.21982L154.287 41.4485C154.242 41.5583 154.322 41.6789 154.441 41.6789H162.94C163.076 41.6789 163.198 41.5962 163.249 41.4699L166.658 32.9893H187.592L191.003 41.47C191.053 41.5962 191.176 41.6789 191.312 41.6789H199.751C199.87 41.6789 199.95 41.5584 199.905 41.4487L182.907 0.220189ZM169.673 25.4896L176.447 8.64524H177.803L184.577 25.4896H169.673Z" fill="white" class="logo_text"></path></svg> 